<svg width="43" height="44" viewBox="0 0 43 44" fill="none" xmlns="http://www.w3.org/2000/svg">
<g id="Tilda_Icons_27bu_26.svg" clip-path="url(#clip0_1_1276)">
<g id="Group">
<path id="Vector" d="M29.6481 22.6706C29.6829 22.0144 29.18 21.4553 28.5246 21.4203L22.3643 21.0914L22.6942 14.9323C22.7289 14.2767 22.2266 13.7171 21.5706 13.6821C20.9152 13.6471 20.3556 14.15 20.3204 14.8056L19.9907 20.965L13.8327 20.6357C13.177 20.601 12.6177 21.1036 12.5824 21.7593C12.5649 22.0867 12.6821 22.3905 12.8855 22.6169C13.0887 22.843 13.3783 22.9918 13.706 23.0096L19.8641 23.3383L19.5346 29.495C19.5168 29.8227 19.634 30.1265 19.8374 30.3529C20.0408 30.5792 20.3302 30.7278 20.6576 30.7452C21.3132 30.7805 21.8729 30.2776 21.9079 29.6222L22.2374 23.465L28.3981 23.7939C29.0532 23.8291 29.6131 23.326 29.6481 22.6706Z" fill="#231F20"/>
<path id="Vector_2" d="M32.6932 11.8117C27.1641 5.65897 17.6601 5.15163 11.5074 10.6807C5.35616 16.2085 4.85023 25.7112 10.3793 31.8639C15.9066 38.0146 25.4079 38.5213 31.5592 32.9935C37.7116 27.4646 38.2205 17.9624 32.6932 11.8117ZM12.147 30.2754C7.49392 25.0976 7.92001 17.1007 13.0964 12.4489C18.2742 7.79589 26.2722 8.22311 30.925 13.4006C35.5765 18.5768 35.1477 26.573 29.9702 31.2258C24.7938 35.8775 16.7982 35.4513 12.147 30.2754Z" fill="#231F20"/>
</g>
</g>
<defs>
<clipPath id="clip0_1_1276">
<rect width="29.9989" height="30" fill="white" transform="translate(22.6658 0.65332) rotate(48.0557)"/>
</clipPath>
</defs>
</svg>
