<svg width="43" height="43" viewBox="0 0 43 43" fill="none" xmlns="http://www.w3.org/2000/svg">
<g clip-path="url(#clip0_1_668)">
<path d="M27.79 15.6075L14.0031 26.564C13.7292 26.7923 13.6379 27.2488 13.9118 27.5227C14.0487 27.7053 14.2313 27.7966 14.4596 27.7966C14.5965 27.7966 14.7792 27.751 14.8705 27.6597L28.6574 16.7032C28.9313 16.4749 29.0226 16.0184 28.7487 15.7445C28.5205 15.4249 28.1096 15.3792 27.79 15.6075Z" fill="white"/>
<path d="M17.7008 20.4921C17.8835 20.4921 18.0661 20.4921 18.2487 20.4465C20.1204 20.1726 21.4443 18.3921 21.1248 16.4747C20.9878 15.5617 20.4856 14.7399 19.7552 14.1921C19.0248 13.6443 18.1117 13.416 17.1987 13.553C16.2856 13.6899 15.4639 14.1921 14.9161 14.9226C14.3682 15.653 14.14 16.566 14.2769 17.4791C14.5508 19.2595 16.0574 20.4921 17.7008 20.4921ZM17.3813 14.9682C17.4726 14.9682 17.6095 14.9226 17.7008 14.9226C18.7052 14.9226 19.6182 15.653 19.7552 16.703C19.9378 17.8443 19.1617 18.8943 18.0204 19.0769C16.8791 19.2595 15.8291 18.4834 15.6465 17.3421C15.4639 16.2008 16.2856 15.1508 17.3813 14.9682Z" fill="white"/>
<path d="M25.0053 22.7744C23.0879 22.7744 21.5358 24.3266 21.5358 26.244C21.5358 28.1614 23.0879 29.7135 25.0053 29.7135C26.9227 29.7135 28.4749 28.1614 28.4749 26.244C28.4292 24.3266 26.8771 22.7744 25.0053 22.7744ZM25.0053 28.2983C23.864 28.2983 22.9053 27.3396 22.9053 26.1983C22.9053 25.057 23.864 24.0983 25.0053 24.0983C26.1466 24.0983 27.1053 25.057 27.1053 26.1983C27.0597 27.3853 26.1466 28.2983 25.0053 28.2983Z" fill="white"/>
<path d="M42.0792 21.1775C42.0792 21.1318 42.1249 21.0405 42.1249 20.9949C42.1249 19.0318 40.0705 18.0275 38.2901 17.1601C37.0119 16.521 35.6423 15.8362 35.2771 15.0144C34.9119 14.1471 35.414 12.7318 35.9162 11.4079C36.601 9.53619 37.2858 7.6188 36.0075 6.34054C34.7292 5.06227 32.9032 5.5188 31.0771 5.92967C29.7988 6.20358 28.4749 6.52314 27.6075 6.15793C26.7401 5.79271 26.0097 4.65141 25.3249 3.55575C24.3205 2.00358 23.2249 0.223145 21.3075 0.223145C19.3901 0.223145 18.2945 2.00358 17.3358 3.60141C16.651 4.74271 15.9662 5.88401 15.0988 6.24923C14.2314 6.61445 12.8619 6.29488 11.5836 5.97532C9.75751 5.5188 7.88577 5.06227 6.65316 6.29488C5.3749 7.57314 6.01403 9.49054 6.60751 11.3623C7.06403 12.7318 7.4749 14.1014 7.10968 15.0144C6.74446 15.8818 5.4662 16.521 4.23359 17.1601C2.49881 18.0731 0.535767 19.0775 0.535767 20.9949C0.535767 21.0405 0.535767 21.1318 0.581419 21.1775C0.581419 21.2231 0.535767 21.3144 0.535767 21.3601C0.535767 23.2775 2.49881 24.3275 4.23359 25.1949C5.4662 25.834 6.74446 26.4731 7.10968 27.3405C7.4749 28.2079 7.01838 29.6231 6.60751 30.9927C6.01403 32.8644 5.3749 34.7818 6.65316 36.0601C7.93142 37.3384 9.80316 36.8362 11.5836 36.3797C12.8619 36.0601 14.2314 35.7405 15.0988 36.1058C15.9662 36.471 16.651 37.6123 17.3358 38.7536C18.2945 40.3514 19.3901 42.1318 21.3075 42.1318C23.2249 42.1318 24.3662 40.3514 25.3249 38.7992C26.0097 37.7036 26.7401 36.5623 27.6075 36.1971C28.5205 35.8318 29.7988 36.1058 31.0771 36.4253C32.8575 36.8362 34.7292 37.2927 36.0075 36.0144C37.2858 34.7362 36.601 32.8188 35.9162 30.9471C35.414 29.5775 34.9119 28.2079 35.2771 27.3405C35.6423 26.4731 36.9662 25.834 38.2901 25.1949C40.0705 24.2818 42.1249 23.2775 42.1249 21.3601C42.1249 21.2688 42.0792 21.2231 42.0792 21.1775ZM37.651 23.9623C36.1445 24.7384 34.5466 25.5144 33.9988 26.8384C33.4053 28.2079 34.0445 29.8514 34.5923 31.4492C35.1401 32.9558 35.6879 34.4166 35.0032 35.0558C34.2727 35.7862 32.8575 35.4666 31.351 35.1014C29.8445 34.7362 28.3379 34.4166 27.014 34.9644C25.7358 35.5123 24.914 36.7905 24.1379 38.0688C23.2705 39.4384 22.4488 40.7623 21.2619 40.7623C20.1206 40.7623 19.2988 39.4384 18.4314 38.0231C17.6553 36.6992 16.8336 35.3753 15.5553 34.8275C14.2314 34.2797 12.6792 34.6449 11.1727 35.0558C9.6662 35.421 8.25098 35.7862 7.52055 35.1014C6.83577 34.4166 7.29229 32.9558 7.79446 31.4492C8.29664 29.8514 8.84446 28.2079 8.25098 26.884C7.70316 25.5601 6.19664 24.784 4.73577 24.0536C3.22924 23.2775 1.81403 22.5471 1.81403 21.4058C1.81403 21.3601 1.81403 21.2688 1.76838 21.2231C1.76838 21.1775 1.81403 21.0862 1.81403 21.0405C1.81403 19.9449 3.22924 19.2144 4.73577 18.3927C6.19664 17.6623 7.70316 16.8862 8.25098 15.5623C8.79881 14.1927 8.29664 12.5492 7.79446 10.9971C7.29229 9.44488 6.83577 7.98401 7.52055 7.34488C8.25098 6.61445 9.6662 6.97967 11.1727 7.39054C12.6792 7.75575 14.2314 8.16662 15.5553 7.6188C16.8336 7.07097 17.6553 5.74706 18.4314 4.42314C19.2988 3.00793 20.0749 1.68401 21.2619 1.68401C22.4488 1.68401 23.2705 3.00793 24.1379 4.37749C24.9597 5.65575 25.7814 6.93401 27.014 7.48184C28.3379 8.02967 29.8445 7.66445 31.351 7.34488C32.8575 6.97967 34.2727 6.6601 35.0032 7.39054C35.6879 8.02967 35.1401 9.49054 34.5923 10.9971C33.9988 12.5949 33.4053 14.2384 33.9988 15.6079C34.5466 16.9318 36.1445 17.7079 37.651 18.484C39.2488 19.2601 40.7097 20.0362 40.7097 21.1318C40.7097 21.1775 40.7097 21.2688 40.7553 21.3144C40.7553 21.3601 40.7097 21.4514 40.7097 21.4971C40.7553 22.4101 39.2488 23.1862 37.651 23.9623Z" fill="white"/>
</g>
<defs>
<clipPath id="clip0_1_668">
<rect width="42" height="42" fill="white" transform="translate(0.535767 0.223145)"/>
</clipPath>
</defs>
</svg>
