<svg width="31" height="31" viewBox="0 0 31 31" fill="none" xmlns="http://www.w3.org/2000/svg">
<g clip-path="url(#clip0_1_1567)">
<path d="M29.8929 0.222656H1.17862C1.00813 0.222656 0.844614 0.290386 0.724056 0.410945C0.603496 0.531504 0.535767 0.695019 0.535767 0.865513V29.5798C0.535767 29.7503 0.603496 29.9138 0.724056 30.0344C0.844614 30.1549 1.00813 30.2227 1.17862 30.2227H29.8929C30.0634 30.2227 30.2269 30.1549 30.3475 30.0344C30.4681 29.9138 30.5358 29.7503 30.5358 29.5798V0.865513C30.5358 0.695019 30.4681 0.531504 30.3475 0.410945C30.2269 0.290386 30.0634 0.222656 29.8929 0.222656ZM29.2501 28.9369H1.82148V1.50837H29.2501V28.9369Z" fill="white"/>
<path d="M11.0358 14.3659H19.6072C19.7777 14.3659 19.9413 14.2982 20.0618 14.1777C20.1824 14.0571 20.2501 13.8936 20.2501 13.7231V5.15165C20.2501 4.98116 20.1824 4.81762 20.0618 4.69706C19.9413 4.5765 19.7777 4.50879 19.6072 4.50879H11.0358C10.8653 4.50879 10.7018 4.5765 10.5812 4.69706C10.4607 4.81762 10.3929 4.98116 10.3929 5.15165V13.7231C10.3929 13.8936 10.4607 14.0571 10.5812 14.1777C10.7018 14.2982 10.8653 14.3659 11.0358 14.3659ZM11.6787 5.7945H14.6787V7.2945C14.6787 7.46499 14.7464 7.62853 14.8669 7.74909C14.9875 7.86965 15.151 7.93736 15.3215 7.93736C15.492 7.93736 15.6555 7.86965 15.7761 7.74909C15.8967 7.62853 15.9644 7.46499 15.9644 7.2945V5.7945H18.9644V13.0802H11.6787V5.7945Z" fill="white"/>
<path d="M16.3929 16.7229V25.2944C16.3929 25.4648 16.4607 25.6284 16.5812 25.7489C16.7018 25.8695 16.8653 25.9372 17.0358 25.9372H25.6072C25.7777 25.9372 25.9413 25.8695 26.0618 25.7489C26.1824 25.6284 26.2501 25.4648 26.2501 25.2944V16.7229C26.2501 16.5524 26.1824 16.3889 26.0618 16.2683C25.9413 16.1478 25.7777 16.0801 25.6072 16.0801H17.0358C16.8653 16.0801 16.7018 16.1478 16.5812 16.2683C16.4607 16.3889 16.3929 16.5524 16.3929 16.7229ZM17.6787 17.3658H20.6787V18.8658C20.6787 19.0363 20.7464 19.1998 20.8669 19.3204C20.9875 19.4409 21.151 19.5086 21.3215 19.5086C21.492 19.5086 21.6555 19.4409 21.7761 19.3204C21.8967 19.1998 21.9644 19.0363 21.9644 18.8658V17.3658H24.9644V24.6515H17.6787V17.3658Z" fill="white"/>
<path d="M5.0358 25.9372H13.6072C13.7777 25.9372 13.9413 25.8695 14.0618 25.7489C14.1824 25.6284 14.2501 25.4648 14.2501 25.2944V16.7229C14.2501 16.5524 14.1824 16.3889 14.0618 16.2683C13.9413 16.1478 13.7777 16.0801 13.6072 16.0801H5.0358C4.86532 16.0801 4.70179 16.1478 4.58123 16.2683C4.46068 16.3889 4.39294 16.5524 4.39294 16.7229V25.2944C4.39294 25.4648 4.46068 25.6284 4.58123 25.7489C4.70179 25.8695 4.86532 25.9372 5.0358 25.9372ZM5.67866 17.3658H8.67866V18.8658C8.67866 19.0363 8.74637 19.1998 8.86693 19.3204C8.98749 19.4409 9.15103 19.5086 9.32152 19.5086C9.492 19.5086 9.65554 19.4409 9.7761 19.3204C9.89666 19.1998 9.96437 19.0363 9.96437 18.8658V17.3658H12.9644V24.6515H5.67866V17.3658Z" fill="white"/>
</g>
<defs>
<clipPath id="clip0_1_1567">
<rect width="30" height="30" fill="white" transform="translate(0.535767 0.222656)"/>
</clipPath>
</defs>
</svg>
