<svg width="41" height="27" viewBox="0 0 41 27" fill="none" xmlns="http://www.w3.org/2000/svg">
<g clip-path="url(#clip0_1_1586)">
<path d="M39.854 12.9499H36.4449V7.26811C36.4449 7.08729 36.373 6.91384 36.2452 6.78597C36.1173 6.65811 35.9439 6.58629 35.763 6.58629H25.0812V0.904474C25.0812 0.723647 25.0094 0.550222 24.8815 0.422357C24.7537 0.294491 24.5802 0.222656 24.3994 0.222656H1.21758C1.03676 0.222656 0.863332 0.294491 0.735467 0.422357C0.607601 0.550222 0.535767 0.723647 0.535767 0.904474V22.2681C0.535767 22.4489 0.607601 22.6224 0.735467 22.7502C0.863332 22.8781 1.03676 22.9499 1.21758 22.9499H6.40849C6.50131 23.8019 6.90549 24.5896 7.54349 25.1618C8.18145 25.7341 9.00831 26.0506 9.86531 26.0506C10.7223 26.0506 11.5492 25.7341 12.1871 25.1618C12.8251 24.5896 13.2293 23.8019 13.3221 22.9499H28.5721C28.665 23.8031 29.0697 24.5918 29.7085 25.1649C30.3474 25.738 31.1753 26.0549 32.0335 26.0549C32.8917 26.0549 33.7196 25.738 34.3584 25.1649C34.9973 24.5918 35.402 23.8031 35.4949 22.9499H39.854C40.0348 22.9499 40.2082 22.8781 40.3361 22.7502C40.464 22.6224 40.5358 22.4489 40.5358 22.2681V13.6317C40.5358 13.4509 40.464 13.2775 40.3361 13.1496C40.2082 13.0217 40.0348 12.9499 39.854 12.9499ZM9.85395 24.6954C9.43445 24.6972 9.02386 24.5744 8.67422 24.3425C8.32458 24.1107 8.05168 23.7802 7.89009 23.3931C7.72854 23.0059 7.68554 22.5795 7.76663 22.1679C7.84768 21.7563 8.04913 21.378 8.34545 21.0811C8.64181 20.7841 9.01963 20.5818 9.43104 20.4998C9.84249 20.4179 10.269 20.46 10.6565 20.6207C11.044 20.7815 11.375 21.0537 11.6076 21.4028C11.8402 21.7519 11.9639 22.1622 11.963 22.5817C11.9619 23.1381 11.7419 23.6716 11.3507 24.067C10.9595 24.4625 10.4284 24.6882 9.87213 24.6954H9.85395ZM9.85395 19.0999C9.10758 19.1046 8.38236 19.3487 7.78508 19.7962C7.18777 20.2438 6.74986 20.8712 6.53577 21.5863H1.8994V1.58629H23.7176V21.5863H13.1994C12.9855 20.8694 12.5464 20.2404 11.9471 19.7926C11.3479 19.3448 10.6203 19.1019 9.87213 19.0999H9.85395ZM32.0312 24.6954C31.6121 24.6954 31.2024 24.571 30.8539 24.3381C30.5055 24.1052 30.234 23.7741 30.0739 23.3867C29.9137 22.9994 29.872 22.5733 29.9541 22.1623C30.0362 21.7513 30.2384 21.3739 30.535 21.0778C30.8317 20.7817 31.2096 20.5804 31.6208 20.4992C32.0319 20.4179 32.458 20.4606 32.8449 20.6216C33.2319 20.7826 33.5625 21.0548 33.7946 21.4037C34.0269 21.7527 34.1503 22.1626 34.1494 22.5817C34.1482 23.1427 33.9245 23.6803 33.5274 24.0766C33.1303 24.4728 32.5922 24.6954 32.0312 24.6954ZM39.1721 21.5863H35.3676C35.1497 20.8744 34.709 20.2512 34.1105 19.8085C33.512 19.3657 32.7871 19.1267 32.0426 19.1267C31.2981 19.1267 30.5732 19.3657 29.9747 19.8085C29.3761 20.2512 28.9355 20.8744 28.7176 21.5863H25.0812V7.94993H35.0812V13.6317C35.0812 13.8126 35.153 13.986 35.2809 14.1139C35.4088 14.2417 35.5822 14.3136 35.763 14.3136H39.1721V21.5863Z" fill="white"/>
<path d="M4.85394 8.4047H18.7176L16.4448 10.6774C16.3778 10.7398 16.3241 10.8151 16.2868 10.8987C16.2496 10.9824 16.2296 11.0727 16.2279 11.1642C16.2263 11.2558 16.2432 11.3467 16.2775 11.4316C16.3118 11.5165 16.3628 11.5936 16.4275 11.6584C16.4923 11.7231 16.5694 11.7742 16.6543 11.8085C16.7392 11.8427 16.8301 11.8596 16.9217 11.858C17.0133 11.8563 17.1035 11.8363 17.1872 11.7991C17.2708 11.7618 17.3461 11.7081 17.4085 11.6411L20.4676 8.58197C20.5953 8.45415 20.667 8.28083 20.667 8.10015C20.667 7.91947 20.5953 7.7462 20.4676 7.61833L17.4085 4.55925C17.344 4.49598 17.2677 4.44602 17.1839 4.41223C17.1002 4.37844 17.0106 4.36149 16.9203 4.36233C16.8299 4.36318 16.7406 4.38181 16.6575 4.41715C16.5744 4.4525 16.499 4.50387 16.4358 4.56834C16.3725 4.63281 16.3225 4.7091 16.2888 4.79288C16.2549 4.87665 16.238 4.96624 16.2388 5.05661C16.2397 5.14693 16.2583 5.2362 16.2937 5.31933C16.329 5.40243 16.3804 5.47779 16.4448 5.54106L17.9448 7.04106H4.85394C4.67311 7.04106 4.49968 7.11288 4.37182 7.24074C4.24396 7.36865 4.17212 7.54206 4.17212 7.72288C4.17212 7.9037 4.24396 8.07715 4.37182 8.20502C4.49968 8.33288 4.67311 8.4047 4.85394 8.4047Z" fill="white"/>
<path d="M19.6268 14.9958C19.6268 14.815 19.5549 14.6415 19.427 14.5137C19.2992 14.3858 19.1258 14.314 18.9449 14.314H5.12675L7.35403 12.0913C7.41698 12.0274 7.46675 11.9517 7.50053 11.8686C7.53425 11.7855 7.5513 11.6966 7.55066 11.6069C7.55003 11.5172 7.53175 11.4285 7.49684 11.3459C7.46193 11.2633 7.41107 11.1883 7.34721 11.1254C7.28334 11.0624 7.20766 11.0126 7.12457 10.9789C7.04148 10.9451 6.95253 10.9281 6.86284 10.9287C6.77316 10.9294 6.68443 10.9476 6.60184 10.9825C6.51921 11.0175 6.44425 11.0683 6.3813 11.1322L3.3222 14.1913C3.19452 14.3191 3.1228 14.4924 3.1228 14.6731C3.1228 14.8538 3.19452 15.027 3.3222 15.1549L6.3813 18.214C6.50966 18.343 6.68407 18.4157 6.86607 18.4161C7.04803 18.4165 7.22275 18.3446 7.35175 18.2163C7.48075 18.0879 7.55343 17.9135 7.55389 17.7315C7.5543 17.5495 7.48239 17.3748 7.35403 17.2458L5.7813 15.6776H18.9631C19.1408 15.6729 19.3096 15.599 19.4335 15.4716C19.5575 15.3443 19.6268 15.1735 19.6268 14.9958Z" fill="white"/>
</g>
<defs>
<clipPath id="clip0_1_1586">
<rect width="40" height="25.9091" fill="white" transform="translate(0.535767 0.222656)"/>
</clipPath>
</defs>
</svg>
