<svg width="29" height="31" viewBox="0 0 29 31" fill="none" xmlns="http://www.w3.org/2000/svg">
<g clip-path="url(#clip0_1_1578)">
<path d="M28.3073 10.2778L14.6758 0.330443C14.5808 0.260428 14.4659 0.222656 14.3479 0.222656C14.2299 0.222656 14.115 0.260428 14.02 0.330443L0.756832 10.2778C0.688197 10.3293 0.63249 10.3961 0.594122 10.4728C0.555754 10.5495 0.535779 10.6341 0.535779 10.7199V29.8778C0.535293 29.9507 0.549229 30.0229 0.576783 30.0904C0.604338 30.1579 0.644967 30.2192 0.696333 30.271C0.747698 30.3227 0.808784 30.3637 0.876073 30.3917C0.943362 30.4197 1.01553 30.4341 1.08841 30.4341H27.9831C28.1297 30.4341 28.2703 30.3759 28.3739 30.2723C28.4776 30.1686 28.5358 30.0281 28.5358 29.8815V10.7236C28.5355 10.6366 28.5147 10.5508 28.475 10.4733C28.4353 10.3959 28.3779 10.3289 28.3073 10.2778ZM23.3779 22.3289H17.4831V16.8026H23.3779V22.3289ZM16.3779 29.3289H10.8516V23.4341H16.3779V29.3289ZM17.4831 23.4341H23.3779V29.3289H17.4831V23.4341ZM23.3779 15.6973H16.9305C16.7839 15.6973 16.6434 15.7555 16.5398 15.8591C16.4361 15.9628 16.3779 16.1033 16.3779 16.2499V22.3289H10.2989C10.1524 22.3289 10.0118 22.3871 9.90818 22.4907C9.80454 22.5944 9.74629 22.7349 9.74629 22.8815V29.3289H6.06208V13.1184H23.3779V15.6973ZM27.4305 29.3289H24.4831V12.5657C24.4831 12.4191 24.4249 12.2786 24.3213 12.1749C24.2176 12.0713 24.0771 12.0131 23.9305 12.0131H5.50945C5.36289 12.0131 5.22234 12.0713 5.1187 12.1749C5.01507 12.2786 4.95682 12.4191 4.95682 12.5657V29.3289H1.64104V10.9999L14.3552 1.46518L27.4305 11.0036V29.3289Z" fill="white"/>
</g>
<defs>
<clipPath id="clip0_1_1578">
<rect width="28" height="30.5789" fill="white" transform="translate(0.535767 0.222656)"/>
</clipPath>
</defs>
</svg>
