<svg width="26" height="33" viewBox="0 0 26 33" fill="none" xmlns="http://www.w3.org/2000/svg">
<g clip-path="url(#clip0_1_1553)">
<path d="M24.9248 2.23828H17.0639V0.827344C17.0639 0.666973 17.0002 0.513166 16.8868 0.399765C16.7734 0.286364 16.6196 0.222656 16.4592 0.222656H9.20295C9.04259 0.222656 8.88876 0.286364 8.77536 0.399765C8.66196 0.513166 8.59827 0.666973 8.59827 0.827344V2.23828H1.14045C0.980083 2.23828 0.826277 2.30199 0.712876 2.41539C0.599475 2.52879 0.535767 2.6826 0.535767 2.84297V31.868C0.535767 32.0283 0.599475 32.1822 0.712876 32.2956C0.826277 32.409 0.980083 32.4727 1.14045 32.4727H24.9248C25.0852 32.4727 25.239 32.409 25.3524 32.2956C25.4658 32.1822 25.5295 32.0283 25.5295 31.868V2.84297C25.5295 2.6826 25.4658 2.52879 25.3524 2.41539C25.239 2.30199 25.0852 2.23828 24.9248 2.23828ZM9.80764 1.43203H15.8545V3.85078H9.80764V1.43203ZM24.3201 31.2633H1.74514V3.44766H8.59827V4.45547C8.59827 4.61583 8.66196 4.76966 8.77536 4.88306C8.88876 4.99646 9.04259 5.06016 9.20295 5.06016H16.4592C16.6196 5.06016 16.7734 4.99646 16.8868 4.88306C17.0002 4.76966 17.0639 4.61583 17.0639 4.45547V3.44766H24.3201V31.2633Z" fill="white"/>
<path d="M5.97798 11.5098H3.96235C3.80198 11.5098 3.64818 11.5735 3.53477 11.6869C3.42138 11.8003 3.35767 11.9541 3.35767 12.1145C3.35767 12.2748 3.42138 12.4286 3.53477 12.542C3.64818 12.6554 3.80198 12.7191 3.96235 12.7191H5.97798C6.13834 12.7191 6.29217 12.6554 6.40557 12.542C6.51897 12.4286 6.58267 12.2748 6.58267 12.1145C6.58267 11.9541 6.51897 11.8003 6.40557 11.6869C6.29217 11.5735 6.13834 11.5098 5.97798 11.5098Z" fill="white"/>
<path d="M8.79982 11.5098C8.63945 11.5098 8.48562 11.5735 8.37222 11.6869C8.25882 11.8003 8.19513 11.9541 8.19513 12.1145C8.19513 12.2748 8.25882 12.4286 8.37222 12.542C8.48562 12.6554 8.63945 12.7191 8.79982 12.7191H22.1029C22.2633 12.7191 22.4171 12.6554 22.5305 12.542C22.6439 12.4286 22.7076 12.2748 22.7076 12.1145C22.7076 11.9541 22.6439 11.8003 22.5305 11.6869C22.4171 11.5735 22.2633 11.5098 22.1029 11.5098H8.79982Z" fill="white"/>
<path d="M5.97798 16.751H3.96235C3.80198 16.751 3.64818 16.8147 3.53477 16.9281C3.42138 17.0415 3.35767 17.1953 3.35767 17.3557C3.35767 17.516 3.42138 17.6699 3.53477 17.7833C3.64818 17.8967 3.80198 17.9604 3.96235 17.9604H5.97798C6.13834 17.9604 6.29217 17.8967 6.40557 17.7833C6.51897 17.6699 6.58267 17.516 6.58267 17.3557C6.58267 17.1953 6.51897 17.0415 6.40557 16.9281C6.29217 16.8147 6.13834 16.751 5.97798 16.751Z" fill="white"/>
<path d="M22.1029 16.751H8.79982C8.63945 16.751 8.48562 16.8147 8.37222 16.9281C8.25882 17.0415 8.19513 17.1953 8.19513 17.3557C8.19513 17.516 8.25882 17.6699 8.37222 17.7833C8.48562 17.8967 8.63945 17.9604 8.79982 17.9604H22.1029C22.2633 17.9604 22.4171 17.8967 22.5305 17.7833C22.6439 17.6699 22.7076 17.516 22.7076 17.3557C22.7076 17.1953 22.6439 17.0415 22.5305 16.9281C22.4171 16.8147 22.2633 16.751 22.1029 16.751Z" fill="white"/>
<path d="M5.97798 21.9912H3.96235C3.80198 21.9912 3.64818 22.0549 3.53477 22.1683C3.42138 22.2817 3.35767 22.4355 3.35767 22.5959C3.35767 22.7563 3.42138 22.9101 3.53477 23.0235C3.64818 23.1369 3.80198 23.2006 3.96235 23.2006H5.97798C6.13834 23.2006 6.29217 23.1369 6.40557 23.0235C6.51897 22.9101 6.58267 22.7563 6.58267 22.5959C6.58267 22.4355 6.51897 22.2817 6.40557 22.1683C6.29217 22.0549 6.13834 21.9912 5.97798 21.9912Z" fill="white"/>
<path d="M22.1029 21.9912H8.79982C8.63945 21.9912 8.48562 22.0549 8.37222 22.1683C8.25882 22.2817 8.19513 22.4355 8.19513 22.5959C8.19513 22.7563 8.25882 22.9101 8.37222 23.0235C8.48562 23.1369 8.63945 23.2006 8.79982 23.2006H22.1029C22.2633 23.2006 22.4171 23.1369 22.5305 23.0235C22.6439 22.9101 22.7076 22.7563 22.7076 22.5959C22.7076 22.4355 22.6439 22.2817 22.5305 22.1683C22.4171 22.0549 22.2633 21.9912 22.1029 21.9912Z" fill="white"/>
</g>
<defs>
<clipPath id="clip0_1_1553">
<rect width="24.9937" height="32.25" fill="white" transform="translate(0.535767 0.222656)"/>
</clipPath>
</defs>
</svg>
